<svg id="logotipo-de-instagram" xmlns="http://www.w3.org/2000/svg" width="47.431" height="47.431" viewBox="0 0 47.431 47.431">
  <path id="Trazado_8" data-name="Trazado 8" d="M34.341,0H13.089A13.1,13.1,0,0,0,0,13.089V34.341A13.1,13.1,0,0,0,13.089,47.431H34.341A13.1,13.1,0,0,0,47.431,34.341V13.089A13.1,13.1,0,0,0,34.341,0Zm8.881,34.341a8.891,8.891,0,0,1-8.881,8.881H13.089a8.891,8.891,0,0,1-8.881-8.881V13.089a8.891,8.891,0,0,1,8.881-8.881H34.341a8.891,8.891,0,0,1,8.881,8.881V34.341Z" fill="#8f3088"/>
  <path id="Trazado_9" data-name="Trazado 9" d="M53.19,40.97A12.221,12.221,0,1,0,65.411,53.192,12.235,12.235,0,0,0,53.19,40.97Zm0,20.234A8.013,8.013,0,1,1,61.2,53.191,8.022,8.022,0,0,1,53.19,61.2Z" transform="translate(-29.474 -29.476)" fill="#8f3088"/>
  <path id="Trazado_10" data-name="Trazado 10" d="M122.007,28.251a3.084,3.084,0,1,0,2.183.9A3.1,3.1,0,0,0,122.007,28.251Z" transform="translate(-85.558 -20.325)" fill="#8f3088"/>
</svg>
