<svg id="logo-de-facebook" xmlns="http://www.w3.org/2000/svg" width="27.835" height="47.675" viewBox="0 0 27.835 47.675">
  <path id="Trazado_6" data-name="Trazado 6" d="M71.452,10.79A2.237,2.237,0,0,0,73.69,8.553a4.083,4.083,0,0,1,4.078-4.078h6.318a2.237,2.237,0,1,0,0-4.475H77.768a8.563,8.563,0,0,0-8.553,8.553A2.238,2.238,0,0,0,71.452,10.79Z" transform="translate(-58.488)" fill="#fed031"/>
  <path id="Trazado_7" data-name="Trazado 7" d="M58.374,59.627H35.493a2.237,2.237,0,1,0,0,4.475h8.49V87.278a2.237,2.237,0,0,0,4.475,0V64.1h9.916a2.237,2.237,0,1,0,0-4.475Z" transform="translate(-33.256 -41.84)" fill="#fed031"/>
</svg>
